<svg width="400" height="440" viewBox="0 0 400 440" xmlns="http://www.w3.org/2000/svg">
  <title>Goa Best Deals Tours &amp; Travels — stacked logo for square formats</title>
  <g transform="translate(80,20)">
  <circle cx="120" cy="120" r="116" fill="#0B1F3A"/>
  <circle cx="120" cy="120" r="108" fill="none" stroke="#FBF3E6" stroke-opacity="0.12" stroke-width="1.5"/>
  <path d="M84,94 A36,36 0 0 1 156,94 Z" fill="#C97A32"/>
  <path d="M92,94 A28,28 0 0 1 148,94 Z" fill="#E2984F"/>
  <path d="M112,118 L112,106 A8,8 0 0 1 128,106 L128,118" fill="none" stroke="#FBF3E6" stroke-width="6" stroke-linecap="round"/>
  <rect x="78" y="118" width="84" height="54" rx="9" fill="#FBF3E6"/>
  <rect x="78" y="140" width="84" height="10" fill="#2F9C89"/>
  <rect x="114" y="138" width="12" height="14" rx="2" fill="#0B1F3A"/>
  <circle cx="90" cy="172" r="3.5" fill="#E2984F"/>
  <circle cx="150" cy="172" r="3.5" fill="#E2984F"/>
  <g transform="rotate(-18 66 122)">
    <rect x="58" y="116" width="18" height="13" rx="2" fill="#C97A32"/>
    <circle cx="63" cy="122.5" r="1.6" fill="#0B1F3A"/>
  </g>
  <line x1="78" y1="120" x2="70" y2="122" stroke="#FBF3E6" stroke-width="2"/>
  <path d="M50,196 C75,184 95,208 120,196 C145,184 165,208 190,196"
        fill="none" stroke="#227A6B" stroke-width="6" stroke-linecap="round"/>
  </g>
  <text x="200" y="330" text-anchor="middle" font-family="'Fraunces', Georgia, serif" font-size="36" font-weight="500" fill="#FBF3E6">Goa Best<tspan fill="#5FBFAC">Deals</tspan></text>
  <line x1="130" y1="348" x2="270" y2="348" stroke="#5FBFAC" stroke-opacity="0.4" stroke-width="1.5"/>
  <text x="200" y="378" text-anchor="middle" font-family="'Inter', Arial, sans-serif" font-size="17" font-weight="500" letter-spacing="2.5" fill="#FBF3E6" fill-opacity="0.88">TOURS &amp; TRAVELS</text>
</svg>
